<svg width="40" height="41" viewBox="0 0 40 41" fill="none" xmlns="http://www.w3.org/2000/svg">
<rect x="0.5" y="1" width="39" height="39" rx="19.5" fill="white"/>
<path d="M27.9862 19.4583H21.0417V12.5139C21.0417 12.322 20.8864 12.1667 20.6945 12.1667H19.3056C19.1138 12.1667 18.9584 12.322 18.9584 12.5139V19.4583H12.014C11.8221 19.4583 11.6667 19.6137 11.6667 19.8055V21.1944C11.6667 21.3863 11.8221 21.5417 12.014 21.5417H18.9584V28.4861C18.9584 28.6779 19.1138 28.8333 19.3056 28.8333H20.6945C20.8864 28.8333 21.0417 28.6779 21.0417 28.4861V21.5417H27.9862C28.178 21.5417 28.3334 21.3863 28.3334 21.1944V19.8055C28.3334 19.6137 28.178 19.4583 27.9862 19.4583Z" fill="black"/>
<rect x="0.5" y="1" width="39" height="39" rx="19.5" stroke="black"/>
</svg>
