<svg width="260" height="55" viewBox="0 0 260 55" fill="none" xmlns="http://www.w3.org/2000/svg">
<path d="M31.2762 45.9079C31.7094 42.9765 30.7997 39.9458 28.8504 37.9585C27.4642 36.4679 25.6015 35.6233 23.6954 35.6233C22.5691 35.6233 21.4862 35.3252 20.4898 34.729C19.1903 33.9341 18.1506 32.692 17.4575 31.2014C17.8474 30.0587 18.0207 28.8166 18.0207 27.4752C18.0207 31.1021 20.5332 34.0334 23.6521 34.0334H23.7821C26.8577 33.9837 29.3269 31.0524 29.3269 27.4752C29.3269 26.1834 29.5435 24.9413 29.89 23.7489C30.4965 21.9106 31.5362 20.271 32.9224 19.0786C34.6118 17.5881 36.6911 16.8925 38.7704 16.9919C37.2976 14.1102 35.2183 11.6757 32.7058 9.93677C32.7058 10.0858 32.7058 10.2846 32.7058 10.4336C32.7058 12.7191 32.056 14.9051 30.8864 16.7434C30.5398 16.3957 30.15 16.0976 29.7601 15.8491C30.7997 14.3089 31.3196 12.4209 31.3196 10.4833C31.3196 9.34055 31.1463 8.19783 30.7564 7.10478C29.6301 3.92502 26.9877 1.68924 23.8687 1.58987H23.6521H23.4355C21.5295 1.58987 19.6668 1.88799 17.8474 2.48419C10.1799 4.86902 4.15861 11.8744 2.12263 20.7678C0.823059 22.6061 0.0433189 24.8419 0 27.2267C0.129957 12.2719 10.5265 0.149052 23.4355 0H23.6954C23.8254 0 23.912 0 24.042 0C36.8644 0.248419 47.2176 12.2719 47.3475 27.2267C47.3475 27.3261 47.3475 27.4255 47.3475 27.5248C47.3475 27.6242 47.3475 27.7236 47.3475 27.823C47.3042 30.2078 46.5678 32.4435 45.2249 34.2818C44.012 35.9711 42.3226 37.2132 40.4598 37.71C39.7667 37.9088 39.0303 38.0081 38.3372 38.0081C36.3879 38.0081 34.4818 37.2629 32.9224 35.9214C32.3592 36.8157 31.6661 37.561 30.9297 38.2566C32.1859 40.1942 32.8357 42.6287 32.7058 45.0632C35.2183 43.3243 37.2976 40.8898 38.7704 38.0081C39.3336 37.9585 39.8967 37.8591 40.4598 37.71C38.6838 41.6847 35.868 44.9142 32.4459 47.0009C29.7601 48.6405 26.7278 49.4851 23.6954 49.4851C22.3526 49.4851 21.0963 48.7398 20.3166 47.5474C19.7534 46.6531 19.4502 45.6098 19.4502 44.5167C19.4502 43.0262 20.0566 41.6351 20.9663 40.7407C21.8327 40.9892 22.7857 41.1382 23.7388 41.1382C22.136 41.1382 20.7931 42.6784 20.7931 44.5664C20.7931 46.4544 22.0926 47.9946 23.7388 47.9946H23.7821C25.3849 47.9946 26.7278 46.4544 26.7278 44.5664C26.7278 42.6784 25.4282 41.1382 23.7821 41.1382C21.6161 41.1382 19.5368 40.4426 17.6741 39.1509C17.2842 38.8528 16.8944 38.5547 16.5478 38.2566C15.7681 37.561 15.1183 36.766 14.5118 35.9214C14.8584 35.6233 15.2049 35.2755 15.5515 34.878C16.3745 36.1201 17.4142 37.2132 18.6271 38.0081C20.1866 39.0515 21.9627 39.598 23.7821 39.598C24.8217 39.598 25.8181 40.0452 26.5545 40.7904C27.4642 41.6847 28.0706 43.0759 28.0706 44.5664C28.0706 45.6594 27.7674 46.7028 27.2043 47.5971C28.6338 47.2493 30.02 46.7525 31.3196 46.0072L31.2762 45.9079ZM40.9364 23.5501C40.6764 21.8609 40.1999 20.271 39.5501 18.7308C37.4708 18.3333 35.3482 18.9792 33.7021 20.42C31.7961 22.1093 30.6698 24.7425 30.6698 27.5248C30.6698 28.8663 30.4099 30.1084 29.89 31.2511C29.2403 32.7416 28.1573 33.9837 26.901 34.7787C28.0706 35.2755 29.1103 36.0705 30.02 37.0641C31.103 36.1201 32.0127 34.8781 32.6624 33.5366C33.5721 31.6983 34.0486 29.6612 34.0486 27.5248C34.0486 26.2827 34.4385 25.1897 35.0883 24.2954C35.9114 23.2024 37.081 22.5565 38.3372 22.5565C39.2902 22.5565 40.1999 22.9042 40.9364 23.5501ZM41.2396 27.3758C41.1963 25.5872 39.8967 24.1463 38.2939 24.0967C36.6478 24.0967 35.3482 25.6369 35.3482 27.4752C35.3482 27.5248 35.3482 27.5745 35.3482 27.5745C35.3915 29.4128 36.6911 30.8537 38.2939 30.8537C39.94 30.8537 41.2396 29.3135 41.2396 27.4752C41.2396 27.4752 41.2396 27.4255 41.2396 27.3758ZM35.0883 30.7543C34.7851 32.0958 34.3519 33.4372 33.7021 34.6296C35.3482 36.1201 37.4708 36.7163 39.5501 36.3189C40.1133 36.2195 40.6764 36.0208 41.2396 35.7724C44.0553 34.4309 45.918 31.3008 46.0047 27.7733V27.3261C46.0047 25.14 45.7448 22.9539 45.2249 20.8175C43.1889 11.9738 37.1676 4.96837 29.5435 2.53386C31.0163 3.97469 32.0127 5.91237 32.4892 8.04877V8.09846C36.4745 10.533 39.5501 14.5077 41.2396 19.327C42.1493 21.8609 42.6258 24.6432 42.6258 27.5745C42.6258 29.1644 41.976 30.6052 40.9364 31.4996C40.1999 32.1454 39.2902 32.5429 38.3372 32.5429C37.0377 32.4932 35.868 31.7977 35.0883 30.7543ZM23.3489 55C10.5265 54.7516 0.173276 42.6784 0.0433191 27.7733V27.4752V27.1771C0.086638 24.7922 0.823059 22.5565 2.16594 20.7182C3.37887 19.0289 5.06831 17.8365 6.93102 17.29C7.62412 17.0912 8.36055 16.9919 9.05365 16.9919C11.003 16.9919 12.909 17.7371 14.4685 19.0786C15.0317 18.1843 15.7248 17.439 16.4612 16.7434C15.2049 14.8058 14.5551 12.3713 14.6418 9.93677C12.1293 11.6757 10.05 14.1102 8.57714 16.9919C8.014 17.0415 7.45085 17.1409 6.8877 17.29C8.66378 13.3153 11.4795 10.0858 14.9017 7.99909C17.5875 6.35952 20.6198 5.51489 23.6521 5.51489C24.995 5.51489 26.2512 6.26016 27.031 7.45258C27.5941 8.2972 27.8974 9.34055 27.8974 10.4833C27.8974 12.0235 27.2909 13.3649 26.3812 14.2593C25.4715 14.0108 24.5618 13.8618 23.6088 13.8618C25.2116 13.8618 26.5545 12.3216 26.5545 10.4336C26.5545 8.54562 25.2549 7.00541 23.6088 7.00541H23.5655C21.9627 7.00541 20.6198 8.54562 20.6198 10.4336C20.6198 12.3216 21.9194 13.8618 23.5655 13.8618C25.7314 13.8618 27.8107 14.5574 29.6734 15.8491C30.0633 16.1472 30.4532 16.4453 30.7997 16.7434C31.5362 17.439 32.2293 18.234 32.8357 19.0786C32.4892 19.3767 32.1426 19.7245 31.7961 20.122C30.973 18.8799 29.9334 17.7868 28.7204 16.9919C27.1609 15.9485 25.3849 15.402 23.5655 15.402C22.5691 15.402 21.5728 14.9548 20.7931 14.2096C19.8401 13.2656 19.2769 11.8744 19.2769 10.4336C19.2769 9.29088 19.6235 8.24751 20.1433 7.40289C18.7138 7.75068 17.2842 8.29719 15.9847 8.99276C15.5515 11.9241 16.4612 14.9548 18.4105 16.9422C19.7967 18.4327 21.6594 19.2773 23.5655 19.2773C24.6918 19.2773 25.7747 19.5754 26.7711 20.1716C28.0706 20.9666 29.1103 22.2087 29.8034 23.6992C29.4135 24.8916 29.1969 26.1337 29.2403 27.4255C29.2403 23.7985 26.7278 20.8672 23.6088 20.8672H23.5655C20.4898 20.9169 18.0207 23.8482 18.0207 27.4255C18.0207 28.7172 17.8041 29.9593 17.4575 31.1518C16.851 32.9901 15.8114 34.6296 14.4252 35.822C12.7358 37.3125 10.6564 38.0081 8.57714 37.9088C10.05 40.7904 12.1293 43.2249 14.6418 44.9639C14.5551 42.5294 15.1616 40.1445 16.4179 38.2069C16.7644 38.5547 17.1543 38.8528 17.5442 39.1012C16.5045 40.6414 15.9847 42.5294 15.9847 44.467C15.9847 45.6098 16.1579 46.7525 16.5478 47.8455C17.6741 51.0253 20.3166 53.2611 23.4355 53.3604H23.8254C25.7314 53.3604 27.5941 53.0623 29.4135 52.4661C37.081 50.0813 43.1023 43.0759 45.1383 34.1825C46.4379 32.3442 47.2176 30.1084 47.2609 27.7236C47.131 42.6784 36.7344 54.8013 23.8254 54.9503H23.5655H23.3056C23.4355 55 23.3489 55 23.3489 55ZM17.8474 52.5158C16.3745 51.075 15.3782 49.1373 14.9017 47.0009C14.9017 47.0009 14.9017 47.0009 14.9017 46.9512C10.9164 44.5167 7.84072 40.542 6.15128 35.7227C5.24159 33.0894 4.76508 30.3071 4.76508 27.4752C4.76508 25.8853 5.41486 24.4444 6.45451 23.5501C7.19094 22.9042 8.05731 22.5068 9.05365 22.5068C10.3532 22.5068 11.5228 23.2023 12.3026 24.2457C12.6058 22.8546 13.039 21.5628 13.6888 20.3704C12.0427 18.8799 9.92003 18.2836 7.84072 18.6811C7.23425 18.7805 6.71443 18.9792 6.15128 19.2276C3.33555 20.5691 1.47284 23.6992 1.3862 27.2267C1.3862 27.3261 1.3862 27.3758 1.3862 27.4752V27.7236C1.3862 29.9097 1.64612 32.0958 2.16594 34.2322C4.24525 43.1256 10.2233 50.131 17.8474 52.5158ZM7.84072 36.3189C9.92003 36.7163 12.0427 36.0705 13.6888 34.6296C15.5948 32.9404 16.7211 30.3071 16.7211 27.5248C16.7211 26.1834 16.981 24.9413 17.5008 23.7986C18.1506 22.308 19.2336 21.0659 20.4898 20.271H20.4465C19.2769 19.7742 18.2373 18.9792 17.3276 17.9855C16.2446 18.9295 15.3349 20.1716 14.6851 21.5131C13.7754 23.3514 13.2989 25.3884 13.2989 27.5248C13.2989 28.7669 12.909 29.86 12.2592 30.7543C11.4362 31.8473 10.2666 32.4932 9.01033 32.4932C8.014 32.4932 7.14762 32.0958 6.4112 31.4499C6.75775 33.1391 7.23425 34.7787 7.84072 36.3189ZM6.15128 27.6739C6.23792 29.4625 7.49417 30.953 9.09697 30.953C10.7431 30.953 12.0427 29.4128 12.0427 27.5745C12.0427 27.5248 12.0427 27.4752 12.0427 27.4752C11.9993 25.6369 10.6998 24.196 9.09697 24.196C7.45085 24.196 6.15128 25.7362 6.15128 27.6242C6.15128 27.5745 6.15128 27.6242 6.15128 27.6739ZM66.3645 13.1165H72.8624L78.927 32.0957H79.0137L84.9917 13.1165H91.4895V39.8464H87.3742V18.383H87.3309L80.2699 39.8464H77.3675L70.3932 18.383H70.3499V39.8464H66.4079L66.3645 13.1165ZM102.839 13.1165H118.261V17.29H106.998V24.0967H117.697V28.0714H106.954V35.6233H118.824V39.8464H102.796L102.839 13.1165ZM136.628 24.6432C137.234 24.6432 137.797 24.5935 138.404 24.4941C138.967 24.3948 139.487 24.196 140.007 23.9476C140.483 23.6495 140.873 23.252 141.176 22.7552C141.479 22.2584 141.653 21.5628 141.653 20.7678C141.653 20.0226 141.523 19.4264 141.22 18.9792C140.916 18.5321 140.57 18.1346 140.137 17.8862C139.66 17.5881 139.184 17.3893 138.62 17.3397C138.101 17.2403 137.537 17.1906 136.974 17.1906H133.206V24.6929C133.249 24.6432 136.628 24.6432 136.628 24.6432ZM129.09 13.1165H137.191C138.274 13.1165 139.357 13.2656 140.397 13.514C141.393 13.7624 142.303 14.2096 143.126 14.8058C143.905 15.402 144.598 16.2466 145.032 17.1906C145.508 18.1843 145.768 19.3767 145.768 20.7678C145.768 22.7055 145.292 24.2954 144.339 25.4878C143.386 26.7299 142.086 27.5248 140.44 27.972L146.634 39.7967H141.653L136.281 28.4688H133.249V39.7967H129.09V13.1165ZM172.799 19.3767C172.193 18.4327 171.37 17.6874 170.417 17.29C169.507 16.8428 168.51 16.6441 167.514 16.6441C166.388 16.6441 165.262 16.8925 164.222 17.3893C163.269 17.8862 162.403 18.5817 161.666 19.4761C160.93 20.3704 160.367 21.4137 160.02 22.5565C159.63 23.7986 159.414 25.0903 159.457 26.3821C159.457 27.8229 159.63 29.1644 160.02 30.3568C160.41 31.5492 160.93 32.5926 161.623 33.4869C162.316 34.3315 163.139 35.0271 164.092 35.5239C165.045 36.0208 166.128 36.2195 167.341 36.2195C168.597 36.2195 169.68 35.9214 170.676 35.3749C171.586 34.8284 172.409 34.0831 173.016 33.1391L176.351 35.822C175.355 37.3125 174.055 38.4553 172.582 39.2502C171.11 40.0452 169.334 40.4923 167.341 40.4923C165.521 40.4923 163.832 40.1445 162.316 39.449C160.843 38.8031 159.5 37.8094 158.374 36.5673C157.248 35.2755 156.381 33.785 155.818 32.0957C155.212 30.3568 154.908 28.4688 154.908 26.3821C154.908 24.2457 155.212 22.308 155.861 20.5691C156.511 18.8302 157.378 17.3893 158.504 16.1969C159.673 14.9548 161.016 14.0108 162.489 13.4146C164.828 12.421 167.384 12.1725 169.81 12.6694C170.633 12.8184 171.413 13.0668 172.149 13.4146C172.886 13.7624 173.579 14.1599 174.272 14.6567C174.922 15.1536 175.485 15.7498 175.961 16.4453C175.961 16.5447 172.799 19.3767 172.799 19.3767ZM203.642 30.009C203.642 31.5989 203.382 33.0894 202.906 34.3812C202.473 35.6233 201.779 36.766 200.913 37.6603C200.047 38.5547 199.05 39.2999 197.967 39.7471C196.798 40.2439 195.498 40.4923 194.242 40.4923C192.986 40.4923 191.729 40.2439 190.516 39.7471C189.434 39.2999 188.394 38.5547 187.527 37.6603C186.661 36.7164 186.011 35.6233 185.535 34.3812C185.058 33.0894 184.842 31.6486 184.842 30.009V13.1165H189V29.8103C189 30.6052 189.087 31.3505 189.26 32.1454C189.434 32.8907 189.737 33.5863 190.127 34.1825C190.516 34.7787 191.08 35.2755 191.729 35.673C192.379 36.0705 193.246 36.2195 194.199 36.2195C195.195 36.2195 196.018 36.0208 196.668 35.673C197.318 35.3252 197.837 34.8284 198.271 34.1825C198.66 33.5863 198.964 32.8907 199.137 32.1454C199.31 31.4002 199.397 30.6052 199.397 29.8103V13.1165H203.555C203.642 13.1165 203.642 30.009 203.642 30.009ZM222.313 24.6432C222.919 24.6432 223.482 24.5935 224.089 24.4941C224.695 24.3948 225.215 24.196 225.691 23.9476C226.168 23.6495 226.558 23.252 226.861 22.7552C227.164 22.2584 227.338 21.5628 227.338 20.7678C227.338 20.0226 227.208 19.4264 226.904 18.9792C226.644 18.5321 226.255 18.1346 225.821 17.8862C225.345 17.5881 224.868 17.3893 224.305 17.3397C223.785 17.2403 223.222 17.1906 222.659 17.1906H218.89V24.6929C218.934 24.6432 222.313 24.6432 222.313 24.6432ZM214.775 13.1165H222.876C223.959 13.1165 225.042 13.2656 226.081 13.514C227.078 13.7624 227.987 14.2096 228.81 14.8058C229.59 15.402 230.24 16.1969 230.716 17.1906C231.193 18.1843 231.453 19.3767 231.453 20.7678C231.453 22.7055 230.976 24.2954 230.023 25.4878C229.07 26.7299 227.771 27.5248 226.125 27.972L232.319 39.7967H227.338L221.966 28.4688H218.934V39.7967H214.775C214.775 39.8464 214.775 13.1165 214.775 13.1165ZM247.091 28.2701L238.341 13.1662H243.409L249.257 24.3948L255.192 13.1662H260L251.25 28.2701V39.8464H247.091V28.2701Z" fill="black"/>
</svg>
