<svg width="180" height="32" viewBox="0 0 180 32" fill="none" xmlns="http://www.w3.org/2000/svg">
<path d="M21.6528 26.71C21.9527 25.0045 21.3229 23.2412 19.9733 22.0849C19.0137 21.2177 17.7241 20.7263 16.4045 20.7263C15.6248 20.7263 14.875 20.5528 14.1853 20.206C13.2856 19.7435 12.5658 19.0208 12.086 18.1536C12.3559 17.4887 12.4758 16.766 12.4758 15.9855C12.4758 18.0958 14.2153 19.8013 16.3745 19.8013H16.4645C18.5938 19.7724 20.3032 18.0668 20.3032 15.9855C20.3032 15.234 20.4532 14.5113 20.6931 13.8175C21.113 12.748 21.8327 11.794 22.7924 11.1003C23.962 10.2331 25.4015 9.82836 26.8411 9.88618C25.8214 8.20957 24.3819 6.79314 22.6425 5.78139C22.6425 5.86811 22.6425 5.98374 22.6425 6.07046C22.6425 7.40018 22.1926 8.67208 21.3829 9.74164C21.143 9.53929 20.873 9.36585 20.6031 9.22132C21.3229 8.3252 21.6828 7.22673 21.6828 6.09936C21.6828 5.4345 21.5628 4.76964 21.2929 4.13369C20.5132 2.28365 18.6838 0.982831 16.5245 0.925017H16.3745H16.2246C14.905 0.925017 13.6155 1.09846 12.3559 1.44535C7.04765 2.83288 2.87904 6.90876 1.46951 12.0831C0.56981 13.1527 0.02999 14.4535 0 15.841C0.08997 7.14002 7.28757 0.0867209 16.2246 0H16.4045C16.4945 0 16.5545 0 16.6445 0C25.5215 0.144535 32.6891 7.14002 32.7791 15.841C32.7791 15.8988 32.7791 15.9566 32.7791 16.0145C32.7791 16.0723 32.7791 16.1301 32.7791 16.1879C32.7491 17.5754 32.2393 18.8762 31.3096 19.9458C30.4698 20.9286 29.3002 21.6513 28.0107 21.9404C27.5308 22.056 27.021 22.1138 26.5412 22.1138C25.1916 22.1138 23.872 21.6802 22.7924 20.8997C22.4025 21.4201 21.9227 21.8537 21.4129 22.2584C22.2826 23.3857 22.7324 24.8022 22.6425 26.2186C24.3819 25.2069 25.8214 23.7904 26.8411 22.1138C27.2309 22.0849 27.6208 22.0271 28.0107 21.9404C26.7811 24.2529 24.8317 26.1319 22.4625 27.346C20.6031 28.2999 18.5038 28.7913 16.4045 28.7913C15.4748 28.7913 14.6051 28.3577 14.0653 27.664C13.6754 27.1436 13.4655 26.5366 13.4655 25.9006C13.4655 25.0334 13.8854 24.224 14.5152 23.7037C15.115 23.8482 15.7747 23.935 16.4345 23.935C15.3249 23.935 14.3952 24.8311 14.3952 25.9295C14.3952 27.028 15.2949 27.9241 16.4345 27.9241H16.4645C17.5741 27.9241 18.5038 27.028 18.5038 25.9295C18.5038 24.8311 17.6041 23.935 16.4645 23.935C14.965 23.935 13.5255 23.5303 12.2359 22.7787C11.966 22.6052 11.6961 22.4318 11.4562 22.2584C10.9164 21.8537 10.4665 21.3911 10.0467 20.8997C10.2866 20.7263 10.5265 20.5239 10.7664 20.2927C11.3362 21.0154 12.056 21.6513 12.8957 22.1138C13.9753 22.7209 15.2049 23.0388 16.4645 23.0388C17.1843 23.0388 17.874 23.299 18.3839 23.7326C19.0137 24.2529 19.4335 25.0623 19.4335 25.9295C19.4335 26.5655 19.2236 27.1725 18.8337 27.6929C19.8234 27.4905 20.7831 27.2014 21.6828 26.7678L21.6528 26.71ZM28.3406 13.7019C28.1606 12.7191 27.8307 11.794 27.3809 10.8979C25.9414 10.6667 24.4718 11.0425 23.3322 11.8808C22.0127 12.8636 21.2329 14.3957 21.2329 16.0145C21.2329 16.7949 21.053 17.5176 20.6931 18.1825C20.2433 19.0497 19.4935 19.7724 18.6238 20.2349C19.4335 20.5239 20.1533 20.9864 20.7831 21.5646C21.5328 21.0154 22.1626 20.2927 22.6125 19.5122C23.2423 18.4426 23.5721 17.2575 23.5721 16.0145C23.5721 15.2918 23.8421 14.6558 24.2919 14.1355C24.8617 13.4995 25.6714 13.1238 26.5412 13.1238C27.2009 13.1238 27.8307 13.3261 28.3406 13.7019ZM28.5505 15.9277C28.5205 14.8871 27.6208 14.0488 26.5112 14.0199C25.3715 14.0199 24.4718 14.916 24.4718 15.9855C24.4718 16.0145 24.4718 16.0434 24.4718 16.0434C24.5018 17.1129 25.4015 17.9512 26.5112 17.9512C27.6508 17.9512 28.5505 17.0551 28.5505 15.9855C28.5505 15.9855 28.5505 15.9566 28.5505 15.9277ZM24.2919 17.8934C24.082 18.6739 23.7821 19.4544 23.3322 20.1481C24.4718 21.0154 25.9414 21.3622 27.3809 21.131C27.7707 21.0732 28.1606 20.9575 28.5505 20.813C30.4998 20.0325 31.7894 18.2114 31.8494 16.159V15.8988C31.8494 14.6269 31.6694 13.355 31.3096 12.112C29.9 6.96658 25.7314 2.89069 20.4532 1.47425C21.4728 2.31255 22.1626 3.43992 22.4925 4.68292V4.71183C25.2516 6.12827 27.3809 8.44083 28.5505 11.2448C29.1803 12.7191 29.5102 14.3379 29.5102 16.0434C29.5102 16.9684 29.0603 17.8067 28.3406 18.327C27.8307 18.7028 27.2009 18.9341 26.5412 18.9341C25.6415 18.9052 24.8317 18.5005 24.2919 17.8934ZM16.1646 32C7.28757 31.8555 0.11996 24.8311 0.0299901 16.159V15.9855V15.8121C0.0599801 14.4246 0.56981 13.1238 1.4995 12.0542C2.33922 11.0714 3.50883 10.3776 4.7984 10.0596C5.27824 9.94399 5.78807 9.88618 6.26791 9.88618C7.61746 9.88618 8.93702 10.3198 10.0167 11.1003C10.4065 10.5799 10.8864 10.1463 11.3962 9.74164C10.5265 8.61427 10.0766 7.19783 10.1366 5.78139C8.3972 6.79314 6.95768 8.20957 5.93802 9.88618C5.54815 9.91508 5.15828 9.9729 4.76841 10.0596C5.998 7.74706 7.94735 5.86811 10.3166 4.65401C12.1759 3.70008 14.2752 3.20867 16.3745 3.20867C17.3042 3.20867 18.1739 3.64228 18.7138 4.33604C19.1036 4.82746 19.3136 5.4345 19.3136 6.09936C19.3136 6.99548 18.8937 7.77597 18.2639 8.29629C17.6341 8.15176 17.0043 8.06504 16.3446 8.06504C17.4542 8.06504 18.3839 7.16893 18.3839 6.07046C18.3839 4.972 17.4842 4.07587 16.3446 4.07587H16.3146C15.2049 4.07587 14.2752 4.972 14.2752 6.07046C14.2752 7.16893 15.1749 8.06504 16.3146 8.06504C17.8141 8.06504 19.2536 8.46974 20.5432 9.22132C20.8131 9.39476 21.083 9.5682 21.3229 9.74164C21.8327 10.1463 22.3126 10.6089 22.7324 11.1003C22.4925 11.2737 22.2526 11.4761 22.0127 11.7073C21.4429 10.9846 20.7231 10.3487 19.8834 9.88618C18.8037 9.27913 17.5741 8.96116 16.3146 8.96116C15.6248 8.96116 14.935 8.70099 14.3952 8.26738C13.7354 7.71815 13.3456 6.90876 13.3456 6.07046C13.3456 5.4056 13.5855 4.79855 13.9454 4.30714C12.9557 4.50948 11.966 4.82746 11.0663 5.23215C10.7664 6.93766 11.3962 8.70099 12.7458 9.85727C13.7054 10.7245 14.995 11.2159 16.3146 11.2159C17.0943 11.2159 17.8441 11.3893 18.5338 11.7362C19.4335 12.1987 20.1533 12.9214 20.6331 13.7886C20.3632 14.4824 20.2133 15.2051 20.2433 15.9566C20.2433 13.8464 18.5038 12.1409 16.3446 12.1409H16.3146C14.1853 12.1698 12.4758 13.8753 12.4758 15.9566C12.4758 16.7082 12.3259 17.4309 12.086 18.1247C11.6661 19.1942 10.9464 20.1481 9.98667 20.8419C8.81706 21.7091 7.37754 22.1138 5.93802 22.056C6.95768 23.7326 8.3972 25.1491 10.1366 26.1608C10.0766 24.7444 10.4965 23.3568 11.3662 22.2295C11.6061 22.4318 11.876 22.6052 12.146 22.7498C11.4262 23.6459 11.0663 24.7444 11.0663 25.8717C11.0663 26.5366 11.1863 27.2014 11.4562 27.8374C12.2359 29.6874 14.0653 30.9883 16.2246 31.0461H16.4945C17.8141 31.0461 19.1036 30.8726 20.3632 30.5257C25.6714 29.1382 29.8401 25.0623 31.2496 19.888C32.1493 18.8184 32.6891 17.5176 32.7191 16.1301C32.6291 24.8311 25.4315 31.8844 16.4945 31.9711H16.3146H16.1346C16.2246 32 16.1646 32 16.1646 32ZM12.3559 30.5547C11.3362 29.7163 10.6465 28.589 10.3166 27.346C10.3166 27.346 10.3166 27.346 10.3166 27.3171C7.55748 25.9006 5.42819 23.5881 4.25858 20.7841C3.62879 19.252 3.2989 17.6332 3.2989 15.9855C3.2989 15.0605 3.74875 14.2222 4.46851 13.7019C4.97834 13.3261 5.57814 13.0948 6.26791 13.0948C7.16761 13.0948 7.97734 13.4995 8.51716 14.1066C8.72709 13.2972 9.02699 12.5456 9.47684 11.8519C8.33722 10.9846 6.86771 10.6378 5.42819 10.869C5.00833 10.9268 4.64845 11.0425 4.25858 11.187C2.30923 11.9675 1.01966 13.7886 0.95968 15.841C0.95968 15.8988 0.95968 15.9277 0.95968 15.9855V16.1301C0.95968 17.402 1.13962 18.6739 1.4995 19.9169C2.93902 25.0912 7.07764 29.1671 12.3559 30.5547ZM5.42819 21.131C6.86771 21.3622 8.33722 20.9864 9.47684 20.1481C10.7964 19.1653 11.5761 17.6332 11.5761 16.0145C11.5761 15.234 11.7561 14.5113 12.116 13.8464C12.5658 12.9792 13.3156 12.2565 14.1853 11.794H14.1553C13.3456 11.505 12.6258 11.0425 11.996 10.4643C11.2463 11.0135 10.6165 11.7362 10.1666 12.5167C9.53682 13.5863 9.20693 14.7715 9.20693 16.0145C9.20693 16.7371 8.93702 17.3731 8.48717 17.8934C7.91736 18.5294 7.10763 18.9051 6.23792 18.9051C5.54815 18.9051 4.94835 18.6739 4.43852 18.2981C4.67844 19.2809 5.00833 20.2349 5.42819 21.131ZM4.25858 16.1012C4.31856 17.1418 5.18827 18.009 6.2979 18.009C7.43752 18.009 8.33722 17.1129 8.33722 16.0434C8.33722 16.0145 8.33722 15.9855 8.33722 15.9855C8.30723 14.916 7.40753 14.0777 6.2979 14.0777C5.15828 14.0777 4.25858 14.9738 4.25858 16.0723C4.25858 16.0434 4.25858 16.0723 4.25858 16.1012ZM45.9447 7.63144H50.4432L54.6418 18.6739H54.7018L58.8404 7.63144H63.3389V23.1834H60.4898V10.6956H60.4598L55.5715 23.1834H53.5621L48.7338 10.6956H48.7038V23.1834H45.9747L45.9447 7.63144ZM71.1963 7.63144H81.8727V10.0596H74.0753V14.0199H81.4828V16.3324H74.0453V20.7263H82.2626V23.1834H71.1663L71.1963 7.63144ZM94.5885 14.3378C95.0083 14.3378 95.3982 14.3089 95.8181 14.2511C96.2079 14.1933 96.5678 14.0777 96.9277 13.9331C97.2576 13.7597 97.5275 13.5285 97.7374 13.2394C97.9473 12.9503 98.0673 12.5456 98.0673 12.0831C98.0673 11.6495 97.9773 11.3026 97.7674 11.0425C97.5575 10.7823 97.3176 10.551 97.0177 10.4065C96.6878 10.2331 96.3579 10.1174 95.968 10.0885C95.6081 10.0307 95.2183 10.0018 94.8284 10.0018H92.2193V14.3668C92.2492 14.3378 94.5885 14.3378 94.5885 14.3378ZM89.3702 7.63144H94.9783C95.7281 7.63144 96.4778 7.71815 97.1976 7.86269C97.8874 8.00722 98.5172 8.26739 99.087 8.61427C99.6268 8.96115 100.107 9.45257 100.407 10.0018C100.736 10.5799 100.916 11.2737 100.916 12.0831C100.916 13.2105 100.586 14.1355 99.9267 14.8293C99.2669 15.5519 98.3672 16.0145 97.2276 16.2746L101.516 23.1545H98.0673L94.3485 16.5637H92.2493V23.1545H89.3702V7.63144ZM119.63 11.2737C119.21 10.7245 118.64 10.2909 117.981 10.0596C117.351 9.79946 116.661 9.68383 115.971 9.68383C115.192 9.68383 114.412 9.82837 113.692 10.1174C113.032 10.4065 112.433 10.8112 111.923 11.3315C111.413 11.8518 111.023 12.4589 110.783 13.1238C110.513 13.8464 110.363 14.598 110.393 15.3496C110.393 16.1879 110.513 16.9684 110.783 17.6621C111.053 18.3559 111.413 18.963 111.893 19.4833C112.373 19.9747 112.942 20.3794 113.602 20.6685C114.262 20.9575 115.012 21.0732 115.851 21.0732C116.721 21.0732 117.471 20.8997 118.161 20.5817C118.79 20.2638 119.36 19.8302 119.78 19.2809L122.089 20.8419C121.4 21.7091 120.5 22.374 119.48 22.8365C118.461 23.299 117.231 23.5592 115.851 23.5592C114.592 23.5592 113.422 23.3568 112.373 22.9521C111.353 22.5763 110.423 21.9982 109.643 21.2755C108.864 20.5239 108.264 19.6567 107.874 18.6739C107.454 17.6621 107.244 16.5637 107.244 15.3496C107.244 14.1066 107.454 12.9792 107.904 11.9675C108.354 10.9557 108.954 10.1174 109.733 9.42366C110.543 8.70099 111.473 8.15176 112.493 7.80488C114.112 7.22674 115.881 7.0822 117.561 7.37127C118.131 7.458 118.67 7.60253 119.18 7.80488C119.69 8.00723 120.17 8.23848 120.65 8.52755C121.1 8.81662 121.489 9.1635 121.819 9.5682C121.819 9.62601 119.63 11.2737 119.63 11.2737ZM140.983 17.4598C140.983 18.3848 140.803 19.252 140.473 20.0036C140.173 20.7263 139.693 21.3911 139.094 21.9115C138.494 22.4318 137.804 22.8654 137.054 23.1256C136.245 23.4146 135.345 23.5592 134.475 23.5592C133.605 23.5592 132.736 23.4146 131.896 23.1256C131.146 22.8654 130.427 22.4318 129.827 21.9115C129.227 21.3622 128.777 20.7263 128.447 20.0036C128.117 19.252 127.967 18.4137 127.967 17.4598V7.63144H130.846V17.3442C130.846 17.8067 130.906 18.2403 131.026 18.7028C131.146 19.1364 131.356 19.5411 131.626 19.888C131.896 20.2349 132.286 20.5239 132.736 20.7552C133.186 20.9864 133.785 21.0732 134.445 21.0732C135.135 21.0732 135.705 20.9575 136.155 20.7552C136.604 20.5528 136.964 20.2638 137.264 19.888C137.534 19.5411 137.744 19.1364 137.864 18.7028C137.984 18.2692 138.044 17.8067 138.044 17.3442V7.63144H140.923C140.983 7.63144 140.983 17.4598 140.983 17.4598ZM153.909 14.3378C154.329 14.3378 154.718 14.3089 155.138 14.2511C155.558 14.1933 155.918 14.0777 156.248 13.9331C156.578 13.7597 156.848 13.5285 157.058 13.2394C157.268 12.9503 157.388 12.5456 157.388 12.0831C157.388 11.6495 157.298 11.3026 157.088 11.0425C156.908 10.7823 156.638 10.551 156.338 10.4065C156.008 10.2331 155.678 10.1174 155.288 10.0885C154.928 10.0307 154.538 10.0018 154.149 10.0018H151.539V14.3668C151.569 14.3378 153.909 14.3378 153.909 14.3378ZM148.69 7.63144H154.299C155.048 7.63144 155.798 7.71815 156.518 7.86269C157.208 8.00722 157.837 8.26739 158.407 8.61427C158.947 8.96115 159.397 9.42366 159.727 10.0018C160.057 10.5799 160.237 11.2737 160.237 12.0831C160.237 13.2105 159.907 14.1355 159.247 14.8293C158.587 15.5519 157.687 16.0145 156.548 16.2746L160.836 23.1545H157.388L153.669 16.5637H151.569V23.1545H148.69C148.69 23.1834 148.69 7.63144 148.69 7.63144ZM171.063 16.4481L165.005 7.66034H168.514L172.562 14.1933L176.671 7.66034H180L173.942 16.4481V23.1834H171.063V16.4481Z" fill="white"/>
</svg>
